<?xml version="1.0" standalone="no"?>
<!DOCTYPE svg PUBLIC "-//W3C//DTD SVG 20010904//EN"
 "http://www.w3.org/TR/2001/REC-SVG-20010904/DTD/svg10.dtd">
<svg version="1.0" xmlns="http://www.w3.org/2000/svg"
 width="347.000000pt" height="347.000000pt" viewBox="0 0 347.000000 347.000000"
 preserveAspectRatio="xMidYMid meet">
<metadata>
Created by potrace 1.11, written by Peter Selinger 2001-2013
</metadata>
<g transform="translate(0.000000,347.000000) scale(0.100000,-0.100000)"
fill="#000000" stroke="none">
<path d="M1100 2705 c-265 -416 -480 -758 -478 -761 3 -2 504 -3 1114 -2
l1109 3 -180 118 c-175 114 -180 117 -195 97 -15 -20 -23 -20 -748 -18 l-733
3 349 545 c191 300 365 571 385 602 l36 57 -85 56 c-46 30 -86 55 -88 55 -1 0
-220 -340 -486 -755z"/>
<path d="M640 1794 c0 -14 1025 -1783 1032 -1781 9 2 1028 1766 1028 1778 0 5
-83 9 -185 9 l-185 0 0 -104 c0 -57 4 -106 8 -108 5 -1 -142 -265 -327 -585
-250 -433 -339 -579 -347 -570 -31 34 -665 1152 -656 1155 8 2 12 38 12 108
l0 104 -190 0 c-104 0 -190 -3 -190 -6z"/>
</g>
</svg>
